<svg width="16" height="16" viewBox="0 0 16 16" fill="none" xmlns="http://www.w3.org/2000/svg">
<path d="M11.653 1.27887H4.34418C3.86492 1.28562 3.40788 1.48205 3.07319 1.82514C2.7385 2.16823 2.55345 2.63 2.55858 3.10927V13.5669C2.55729 13.7757 2.61722 13.9804 2.73096 14.1555C2.8447 14.3307 3.00727 14.4687 3.19858 14.5525C3.3802 14.6383 3.58338 14.6677 3.78188 14.6369C3.98038 14.6061 4.16509 14.5165 4.31218 14.3797L7.73618 11.3461C7.81437 11.2838 7.91139 11.2498 8.01138 11.2498C8.11136 11.2498 8.20838 11.2838 8.28658 11.3461L11.7106 14.3797C11.8585 14.515 12.0432 14.6036 12.2413 14.6343C12.4394 14.665 12.6422 14.6366 12.8242 14.5525C13.0155 14.4687 13.178 14.3307 13.2918 14.1555C13.4055 13.9804 13.4655 13.7757 13.4642 13.5669V3.10927C13.4667 2.86981 13.4217 2.63222 13.3319 2.41026C13.242 2.18829 13.109 1.98635 12.9405 1.81613C12.7721 1.6459 12.5716 1.51077 12.3506 1.41855C12.1295 1.32633 11.8925 1.27886 11.653 1.27887Z" fill="#02668F"/>
</svg>
